<?xml version="1.0" encoding="utf-8"?>
<!-- Generator: Adobe Illustrator 18.1.1, SVG Export Plug-In . SVG Version: 6.00 Build 0)  -->
<svg version="1.1" id="Layer_1" xmlns="http://www.w3.org/2000/svg" xmlns:xlink="http://www.w3.org/1999/xlink" x="0px" y="0px"
	 viewBox="927 490 66 100" enable-background="new 927 490 66 100" xml:space="preserve">
<linearGradient id="SVGID_1_" gradientUnits="userSpaceOnUse" x1="927" y1="540.1" x2="992.8" y2="540.1" gradientTransform="matrix(1 0 0 -1 0 1080)">
	<stop  offset="0" style="stop-color:#559EFF"/>
	<stop  offset="9.677419e-002" style="stop-color:#ABC7EF"/>
</linearGradient>
<rect x="927" y="490" fill="url(#SVGID_1_)" width="65.8" height="99.8"/>
<g>
	<g>
		<g>
			<defs>
				<rect id="SVGID_2_" x="944" y="524" width="32" height="32"/>
			</defs>
			<clipPath id="SVGID_3_">
				<use xlink:href="#SVGID_2_"  overflow="visible"/>
			</clipPath>
			<g clip-path="url(#SVGID_3_)">
				<g>
					<defs>
						<rect id="SVGID_4_" x="944" y="524" width="32" height="32"/>
					</defs>
					<defs>
						<rect id="SVGID_5_" x="944" y="524" width="32" height="32"/>
					</defs>
					<defs>
						<rect id="SVGID_6_" x="944" y="524" width="32" height="32"/>
					</defs>
					<defs>
						<rect id="SVGID_7_" x="944" y="524" width="32" height="32"/>
					</defs>
					<defs>
						<rect id="SVGID_8_" x="944" y="524" width="32" height="32"/>
					</defs>
					<defs>
						<rect id="SVGID_9_" x="944" y="524" width="32" height="32"/>
					</defs>
					<clipPath id="SVGID_10_">
						<use xlink:href="#SVGID_4_"  overflow="visible"/>
					</clipPath>
					<clipPath id="SVGID_11_" clip-path="url(#SVGID_10_)">
						<use xlink:href="#SVGID_5_"  overflow="visible"/>
					</clipPath>
					<clipPath id="SVGID_12_" clip-path="url(#SVGID_11_)">
						<use xlink:href="#SVGID_6_"  overflow="visible"/>
					</clipPath>
					<clipPath id="SVGID_13_" clip-path="url(#SVGID_12_)">
						<use xlink:href="#SVGID_7_"  overflow="visible"/>
					</clipPath>
					<clipPath id="SVGID_14_" clip-path="url(#SVGID_13_)">
						<use xlink:href="#SVGID_8_"  overflow="visible"/>
					</clipPath>
					<clipPath id="SVGID_15_" clip-path="url(#SVGID_14_)">
						<use xlink:href="#SVGID_9_"  overflow="visible"/>
					</clipPath>
					<path clip-path="url(#SVGID_15_)" fill="#FFFFFF" d="M951,533h18c-1.7,1.7-1.7,4.3,0,6h-18C949.3,537.3,949.3,534.7,951,533"/>
					<path clip-path="url(#SVGID_15_)" fill="#FFFFFF" d="M951,541h18c1.7,1.7,1.7,4.3,0,6h-18C952.7,545.3,952.7,542.7,951,541"/>
					<rect x="951" y="541" clip-path="url(#SVGID_15_)" fill="#FFFFFF" width="3" height="1"/>
					<rect x="951" y="546" clip-path="url(#SVGID_15_)" fill="#FFFFFF" width="2" height="1"/>
					<rect x="967" y="533" clip-path="url(#SVGID_15_)" fill="#FFFFFF" width="2" height="1"/>
					<rect x="967" y="538" clip-path="url(#SVGID_15_)" fill="#FFFFFF" width="2" height="1"/>
				</g>
			</g>
		</g>
	</g>
</g>
</svg>
